<?xml version="1.0" encoding="utf-8"?>
<!-- Generator: Adobe Illustrator 24.0.3, SVG Export Plug-In . SVG Version: 6.00 Build 0)  -->
<svg version="1.1" id="Layer_1" xmlns="http://www.w3.org/2000/svg" xmlns:xlink="http://www.w3.org/1999/xlink" x="0px" y="0px"
	 viewBox="0 0 401.95 402.083" enable-background="new 0 0 401.95 402.083" xml:space="preserve">
<g>
	<path fill="#ffffff" d="M401.756,193.631c-5.35-116.37-104.14-197.05-207.28-193.52c-107.62,3.69-196.53,95.01-194.44,202.9
		c1.5,123.85,108.51,201.13,203.13,199.03C324.276,399.351,406.486,296.281,401.756,193.631z M145.846,207.991
		c6.36,45.66,56.37,59.68,85.32,39.58c6.56-4.55,11.67-11.26,17.11-17.27c1.94-2.15,3.59-3.38,6.62-3.33
		c11.65,0.19,23.31,0.08,35.9,0.08c-5.34,15.5-13.06,28.83-24.27,40c-17.37,17.31-38.85,25.54-62.98,26.33
		c-50.14,1.63-92.47-36.83-95.83-87.94c-3.37-51.13,34.03-91.52,78.79-98.5c48.22-7.51,92.74,23.54,104.16,66.85
		c-12.53,0-24.51,0.22-36.47-0.19c-2.3-0.08-5.34-2.06-6.66-4.07c-14.41-21.88-41.48-30.69-66.41-21.31
		C157.036,157.281,142.276,182.411,145.846,207.991z M242.486,83.231c-70.91-26.13-152.1,22.21-163.43,96.9
		c-8.96,58.99,21.08,114.92,74.54,136.47c73.86,29.78,151.37-12.55,169.48-85.08c0.85-3.39,2-4.62,5.56-4.57
		c13.14,0.21,26.28,0.09,39.87,0.09c-15.34,88.77-90.64,146.21-179.78,140.43c-84.83-5.51-157.39-81.66-154.65-171.72
		c2.81-92.2,75.61-164.2,167.71-165.42c82.4-1.09,155.55,61.26,167.09,143.01h-16.85c-7.83,0-15.67-0.26-23.49,0.11
		c-3.83,0.18-5.09-1.32-6.06-4.7C310.436,126.601,283.266,98.261,242.486,83.231z"/>
</g>
</svg>
