<?xml version="1.0" encoding="utf-8"?>
<!-- Generator: Adobe Illustrator 24.0.3, SVG Export Plug-In . SVG Version: 6.00 Build 0)  -->
<svg version="1.1" id="Layer_1" xmlns="http://www.w3.org/2000/svg" xmlns:xlink="http://www.w3.org/1999/xlink" x="0px" y="0px"
	 viewBox="0 0 352.508 50.616" enable-background="new 0 0 352.508 50.616" xml:space="preserve">
<style type="text/css">
	.st0{fill:#FFFFFF;}
</style>
<g>
	<path class="st0" d="M15.624,22.032l0.864,3.672l5.544-1.872v9.216l-5.544,1.872l1.008,14.688L1.8,50.544l0.936-30.312L0,18.36L3.744,0.936
		L27.576,0l-1.8,22.032H15.624z"/>
	<path class="st0" d="M48.456,50.616l-7.056-12.672l0.792,11.808h-9.432l0.72-25.2l-1.584-0.792V8.856c2.88-1.055,5.604-1.559,8.172-1.512
		c2.567,0.048,4.824,0.54,6.768,1.476s3.528,2.244,4.752,3.924c1.224,1.681,1.932,3.6,2.124,5.76c0.191,2.16-0.192,4.5-1.152,7.02
		c-0.961,2.52-2.617,5.101-4.968,7.74l8.784,11.016L48.456,50.616z M41.399,26.136c0.576,0,1.044-0.288,1.404-0.864
		c0.36-0.576,0.576-1.26,0.648-2.052c0.072-0.792-0.061-1.584-0.396-2.376c-0.336-0.792-0.889-1.379-1.656-1.764V26.136z"/>
	<path class="st0" d="M78.479,7.56l8.064,42.84H75.239l-0.792-12.096L72,39.168V50.4l-11.304-0.792l6.408-42.84L78.479,7.56z M72,29.376h2.448
		l-1.656-6.48L72,29.376z"/>
	<path class="st0" d="M128.375,50.616l-14.328-0.792l0.864-12.024l-4.896,10.44l-5.544-10.44v12.024l-13.608,0.792l3.24-42.192l8.784-0.792
		l6.264,16.704l7.2-15.912l8.784-0.792L128.375,50.616z"/>
	<path class="st0" d="M146.302,25.704v4.752l4.752-0.792l-0.792,4.752l-3.96,1.656l-0.864,3.096l7.992-2.304l-0.792,10.296l-19.152,3.24
		l1.584-26.352l-2.376-1.656l3.24-14.328L156.67,6.48l-1.584,20.736L146.302,25.704z"/>
	<path class="st0" d="M179.062,40.32l-3.96,0.72l-0.72,8.712h-11.88l-1.512-42.48l14.112,2.232l-0.72,20.52l3.888-0.792l-0.792-21.96h11.089
		l0.791,42.48l-8.711,0.72L179.062,40.32z"/>
	<path class="st0" d="M211.462,7.56l8.063,42.84h-11.304l-0.792-12.096l-2.448,0.864V50.4l-11.304-0.792l6.408-42.84L211.462,7.56z
		 M204.982,29.376h2.448l-1.656-6.48L204.982,29.376z"/>
	<path class="st0" d="M261.357,50.616l-14.328-0.792l0.864-12.024l-4.896,10.44l-5.544-10.44v12.024l-13.608,0.792l3.24-42.192l8.784-0.792
		l6.264,16.704l7.2-15.912l8.784-0.792L261.357,50.616z"/>
	<path class="st0" d="M279.285,25.704v4.752l4.752-0.792l-0.792,4.752l-3.96,1.656l-0.864,3.096l7.992-2.304l-0.792,10.296l-19.152,3.24
		l1.584-26.352l-2.376-1.656l3.24-14.328l20.735-1.584l-1.584,20.736L279.285,25.704z"/>
	<path class="st0" d="M312.044,40.32l-3.96,0.72l-0.721,8.712h-11.88l-1.512-42.48l14.112,2.232l-0.721,20.52l3.889-0.792l-0.792-21.96h11.088
		l0.792,42.48l-8.712,0.72L312.044,40.32z"/>
	<path class="st0" d="M344.445,7.56l8.063,42.84h-11.304l-0.792-12.096l-2.448,0.864V50.4l-11.304-0.792l6.408-42.84L344.445,7.56z
		 M337.964,29.376h2.448l-1.656-6.48L337.964,29.376z"/>
</g>
</svg>
